Fly_normalized_Motion_pl02
version=1
nRows=12
nColumns=43
inDegrees=yes
endheader
time		pelvis_tilt		pelvis_list		pelvis_rotation		pelvis_tx		pelvis_ty		pelvis_tz		hip_flexion_r		hip_adduction_r		hip_rotation_r		knee_angle_r		ankle_angle_r		subtalar_angle_r		mtp_angle_r		hip_flexion_l		hip_adduction_l		hip_rotation_l		knee_angle_l		ankle_angle_l		subtalar_angle_l		mtp_angle_l		lumbar_extension		lumbar_bending		lumbar_rotation		neck_flexion		neck_lateral_bending		neck_rotation		arm_flex_r		arm_add_r		arm_rot_r		elbow_flex_r		pro_sup_r		wrist_flex_r		wrist_dev_r		hand_finger_flex_r		arm_flex_l		arm_add_l		arm_rot_l		elbow_flex_l		pro_sup_l		wrist_flex_l		wrist_dev_l		hand_finger_flex_l		
0.572500		-2.282138		-13.149544		91.315276		0.023310		1.906264		1.470277		38.520525		-6.483045		2.859072		-104.840520		-10.828576		2.108114		14.737012		41.663971		-1.641296		2.471345		-108.223281		-12.307665		-12.655306		18.736438		-42.017462		-3.668827		3.195119		12.933201		3.497870		-5.876861		132.909849		-12.441535		40.330327		51.664466		69.922973		-29.324440		-5.994855		23.522939		127.261469		-0.188658		24.348971		60.942506		114.049712		-21.069585		12.532213		71.189541		
0.576843		-2.168029		-12.945327		91.432628		0.023226		1.906198		1.462299		38.673340		-6.390573		2.620533		-104.662530		-9.854823		2.152226		14.807795		41.871830		-1.752700		2.340191		-108.396118		-11.414057		-13.520669		18.561103		-42.053893		-3.562885		3.198238		12.442255		3.611017		-5.954600		133.097231		-12.728633		41.056367		51.523802		70.283596		-29.117738		-5.828119		23.532861		127.166522		-0.371764		24.724282		60.875331		113.963715		-20.937844		12.490450		71.091130		
0.581187		-1.794214		-12.851986		91.793067		0.022537		1.905847		1.454840		38.951156		-6.226945		2.147230		-104.402713		-8.888617		2.446338		14.502529		42.449488		-1.879359		2.413095		-108.653022		-11.384677		-15.537228		17.229002		-42.080833		-3.020352		3.418602		12.225384		3.295153		-6.167727		133.565398		-13.150004		42.177739		51.477713		71.256377		-28.892938		-5.687076		23.411265		126.996338		-0.504999		24.734754		60.943492		113.458385		-20.929013		12.255329		70.667065		
0.585530		-1.718075		-12.729001		91.975076		0.021997		1.905345		1.447086		39.360062		-6.264253		1.861388		-104.215786		-8.720977		1.781624		14.234768		42.860638		-1.808577		2.344686		-108.728016		-11.138585		-16.753609		16.458283		-42.092188		-2.831748		3.352950		11.936576		3.297572		-6.164193		133.645566		-13.510157		42.803415		51.615479		71.671556		-28.655766		-5.595856		23.438027		126.751624		-0.844031		25.062399		61.170596		113.428539		-20.785304		12.142158		70.584701		
0.589874		-1.585279		-12.804998		92.234665		0.021233		1.904348		1.439911		40.118849		-6.342465		1.522057		-104.025275		-8.719299		1.066461		11.655580		43.736113		-1.670683		2.291388		-108.919677		-11.176533		-18.246267		8.640732		-41.939434		-2.532787		3.331266		11.765955		3.118950		-6.178950		133.607884		-13.711442		42.892494		51.693072		72.828874		-28.181365		-5.323947		22.954351		126.426929		-1.022435		24.968165		61.342266		113.423681		-20.155018		11.798789		69.699704		
0.594217		-1.567742		-12.580373		92.395184		0.020707		1.903637		1.432393		40.591686		-6.456516		1.287670		-103.796121		-9.038943		-0.078236		11.422956		44.164903		-1.516375		2.260826		-108.945895		-11.389850		-19.268171		7.986101		-42.138719		-2.385435		3.224597		11.645853		3.032107		-6.203574		133.639185		-13.938909		43.263406		51.767839		73.029313		-28.125972		-5.348032		22.913847		126.215546		-1.287054		25.111326		61.476807		113.506368		-20.050007		11.719566		69.711944		
0.598561		-1.499304		-12.366064		92.590177		0.020171		1.902812		1.424957		41.102019		-6.546535		0.998757		-103.530287		-9.328402		-1.294962		11.263720		44.656335		-1.407470		2.242040		-108.945477		-11.783524		-20.481482		7.552819		-42.331269		-2.181116		3.122371		11.537400		2.945850		-6.212162		133.572551		-14.167533		43.548748		51.902949		73.198940		-28.115513		-5.404661		22.876384		125.923547		-1.570286		25.218165		61.660807		113.619059		-19.974937		11.601333		69.744584		
0.602904		-1.396850		-12.158563		92.796254		0.019655		1.901882		1.417593		41.650941		-6.609449		0.675500		-103.246052		-9.504596		-2.491102		11.061306		45.197097		-1.326172		2.230068		-108.919093		-12.230278		-21.767749		7.009307		-42.525843		-1.942590		3.036836		11.432162		2.862546		-6.204073		133.408937		-14.382510		43.709182		52.085525		73.363534		-28.119953		-5.472199		22.826205		125.563527		-1.869068		25.279315		61.879064		113.763755		-19.904718		11.454992		69.749123		
0.607247		-1.282301		-11.966633		93.011859		0.019104		1.900815		1.410337		42.237923		-6.668993		0.312553		-102.951627		-9.473052		-3.784661		10.760656		45.783098		-1.232277		2.199940		-108.856706		-12.584274		-23.120973		6.293847		-42.718211		-1.677092		2.955849		11.310339		2.759086		-6.180266		133.164521		-14.585501		43.762784		52.317586		73.536121		-28.111218		-5.542095		22.770925		125.139604		-2.210839		25.318542		62.157253		113.967193		-19.834287		11.306158		69.708020		
0.611591		-1.077767		-11.916854		93.274334		0.018428		1.899531		1.403055		42.939740		-6.688236		-0.186786		-102.540053		-9.298770		-5.277986		9.895242		46.564846		-1.194603		2.114753		-108.719914		-13.048514		-24.896012		4.577063		-42.760034		-1.290151		2.883541		11.205422		2.614598		-6.100319		132.685228		-14.856778		43.611460		52.890242		73.879204		-28.054874		-5.682000		22.703175		124.464418		-2.731305		25.272199		62.831415		114.260728		-19.738997		11.185947		69.510413		
0.615934		-1.012490		-11.838248		93.391839		0.017871		1.897967		1.395972		43.733689		-6.723238		-0.377794		-102.255481		-8.492896		-5.799829		6.976525		47.296251		-1.110754		1.873259		-108.556728		-12.550384		-25.675410		-1.002947		-42.836884		-1.105768		2.825362		11.079664		2.522706		-6.072507		132.162318		-14.994410		43.200374		53.221888		74.754272		-27.773513		-5.572771		22.687956		123.851086		-3.112516		25.199562		63.288242		114.372771		-19.386719		11.400291		68.742530		
0.620278		-0.950070		-11.518829		93.469017		0.017338		1.896769		1.388618		44.249562		-6.723320		-0.522392		-101.820796		-8.261877		-6.298013		6.972572		47.695633		-1.101001		1.649457		-108.252992		-12.454496		-26.186843		-1.171093		-43.193581		-0.922342		2.814360		11.008424		2.350177		-6.010631		131.622954		-15.221349		43.029966		53.724728		74.721054		-27.917291		-5.730158		22.656137		123.206437		-3.542403		25.170699		63.756536		114.305821		-19.449108		11.312953		68.736537		
